Coordinates
version=1
nRows=22
nColumns=26
inDegrees=yes

Units are S.I. units (second, meters, Newtons, ...)
If the header above contains a line with 'inDegrees', this indicates whether rotational values are in degrees (yes) or radians (no).

endheader
time	pelvis_tilt	pelvis_list	pelvis_rotation	pelvis_tx	pelvis_ty	pelvis_tz	hip_flexion_r	hip_adduction_r	hip_rotation_r	knee_angle_r	knee_angle_r_beta	ankle_angle_r	subtalar_angle_r	mtp_angle_r	hip_flexion_l	hip_adduction_l	hip_rotation_l	knee_angle_l	knee_angle_l_beta	ankle_angle_l	subtalar_angle_l	mtp_angle_l	lumbar_extension	lumbar_bending	lumbar_rotation
      3.75500000	     -8.46782447	      1.94191314	     -1.03525806	     -0.15756579	      1.01058719	     -0.53609628	     12.62694854	     -6.51777602	    -11.37618538	     16.08444610	      0.28072654	    -18.01241297	      0.00000000	      0.00000000	     13.42264213	     -3.58633531	      4.83560097	     14.62175422	      0.25519775	    -20.56343587	      0.00000000	      0.00000000	      1.50275942	      0.58674272	      5.19172548
      3.76000000	     -8.36062125	      1.90802961	     -1.02992637	     -0.15733865	      1.01064308	     -0.53628306	     12.61598984	     -6.48113277	    -11.37992083	     16.38361483	      0.28594802	    -17.21849015	      0.00000000	      0.00000000	     13.30038210	     -3.59046017	      4.93242412	     14.75586049	      0.25753835	    -19.78367433	      0.00000000	      0.00000000	      1.40052736	      0.61976183	      5.21010412
      3.76500000	     -8.24789484	      1.86916271	     -1.02139991	     -0.15714554	      1.01048494	     -0.53646563	     12.61007320	     -6.43940204	    -11.38269504	     16.70275975	      0.29151815	    -16.54660076	      0.00000000	      0.00000000	     13.17950825	     -3.59857653	      5.04437119	     14.90194134	      0.26008794	    -19.08055888	      0.00000000	      0.00000000	      1.28317744	      0.65646304	      5.22301026
      3.77000000	     -8.13292502	      1.82746230	     -1.00898109	     -0.15699324	      1.01010844	     -0.53664241	     12.61269696	     -6.39417802	    -11.38343045	     17.03662530	      0.29734520	    -16.05360023	      0.00000000	      0.00000000	     13.06815270	     -3.60972302	      5.16732305	     15.06372441	      0.26291159	    -18.48049550	      0.00000000	      0.00000000	      1.15346132	      0.69451110	      5.23033038
      3.77500000	     -8.01933109	      1.78673149	     -0.99138110	     -0.15689164	      1.00950912	     -0.53681912	     12.62980546	     -6.35134509	    -11.38299056	     17.38521438	      0.30342923	    -15.75571072	      0.00000000	      0.00000000	     12.97455025	     -3.61895803	      5.30239006	     15.24484213	      0.26607269	    -18.00613194	      0.00000000	      0.00000000	      1.01422915	      0.73013804	      5.22967767
      3.78000000	     -7.91023222	      1.74850922	     -0.96796759	     -0.15684735	      1.00867871	     -0.53700203	     12.66764851	     -6.31463243	    -11.38298602	     17.75328352	      0.30985325	    -15.65853872	      0.00000000	      0.00000000	     12.90727203	     -3.62474445	      5.44506954	     15.45250797	      0.26969714	    -17.67594396	      0.00000000	      0.00000000	      0.86806569	      0.76228402	      5.22205192
      3.78500000	     -7.80989437	      1.71191004	     -0.94233659	     -0.15687104	      1.00760927	     -0.53718524	     12.72977573	     -6.28038837	    -11.37047810	     18.13605317	      0.31653384	    -15.74351228	      0.00000000	      0.00000000	     12.87516401	     -3.62992240	      5.58771460	     15.69200177	      0.27387710	    -17.49702260	      0.00000000	      0.00000000	      0.71700368	      0.79129829	      5.21417185
      3.79000000	     -7.72000631	      1.68252311	     -0.91150995	     -0.15696892	      1.00628896	     -0.53737806	     12.82124303	     -6.25883957	    -11.35646161	     18.54314825	      0.32363899	    -15.97037281	      0.00000000	      0.00000000	     12.88411182	     -3.62674600	      5.73176726	     15.96951056	      0.27872054	    -17.47832889	      0.00000000	      0.00000000	      0.56358390	      0.81232166	      5.19863696
      3.79500000	     -7.64180301	      1.66000108	     -0.87634010	     -0.15714292	      1.00471151	     -0.53758372	     12.94438565	     -6.25100459	    -11.34177143	     18.97954854	      0.33125561	    -16.26778615	      0.00000000	      0.00000000	     12.93861377	     -3.61662073	      5.86905787	     16.29263955	      0.28436020	    -17.58684720	      0.00000000	      0.00000000	      0.40797152	      0.82531267	      5.17855887
      3.80000000	     -7.57734199	      1.64297453	     -0.84278637	     -0.15740009	      1.00286789	     -0.53779299	     13.10429228	     -6.25439359	    -11.31952639	     19.45381923	      0.33953320	    -16.56941294	      0.00000000	      0.00000000	     13.04217405	     -3.60370156	      5.98656776	     16.66724916	      0.29089838	    -17.77433286	      0.00000000	      0.00000000	      0.25097737	      0.83174508	      5.16156620
      3.80500000	     -7.52757520	      1.63141710	     -0.81001394	     -0.15774174	      1.00075525	     -0.53800275	     13.30088513	     -6.26865266	    -11.29238915	     19.96673044	      0.34848519	    -16.81764710	      0.00000000	      0.00000000	     13.19515781	     -3.58870164	      6.08587513	     17.09478777	      0.29836033	    -18.00363325	      0.00000000	      0.00000000	      0.09333895	      0.83081340	      5.14551682
      3.81000000	     -7.49058815	      1.62847837	     -0.77687004	     -0.15816528	      0.99836993	     -0.53821892	     13.53652554	     -6.30171278	    -11.27460606	     20.53311555	      0.35837047	    -16.96063969	      0.00000000	      0.00000000	     13.39455535	     -3.56797730	      6.16381302	     17.57914174	      0.30681390	    -18.21795304	      0.00000000	      0.00000000	     -0.06560098	      0.82021243	      5.12541404
      3.81500000	     -7.46251289	      1.63018861	     -0.74826296	     -0.15866167	      0.99571763	     -0.53842708	     13.80690230	     -6.34779639	    -11.26411290	     21.15282749	      0.36918649	    -16.97399072	      0.00000000	      0.00000000	     13.63366510	     -3.55047115	      6.20514891	     18.12140414	      0.31627817	    -18.35763315	      0.00000000	      0.00000000	     -0.23252109	      0.80062445	      5.11725725
      3.82000000	     -7.44185162	      1.63651469	     -0.72592753	     -0.15922780	      0.99279737	     -0.53862410	     14.11088372	     -6.40764791	    -11.26367382	     21.82645880	      0.38094357	    -16.86070279	      0.00000000	      0.00000000	     13.90666393	     -3.53658188	      6.20759515	     18.71796955	      0.32669020	    -18.39492788	      0.00000000	      0.00000000	     -0.40738915	      0.77403501	      5.11770778
      3.82500000	     -7.42306200	      1.64775573	     -0.70755453	     -0.15984947	      0.98961649	     -0.53881255	     14.43960231	     -6.48256342	    -11.28212628	     22.54690840	      0.39351779	    -16.64836353	      0.00000000	      0.00000000	     14.20477075	     -3.52709195	      6.16980044	     19.36736611	      0.33802431	    -18.32755538	      0.00000000	      0.00000000	     -0.59414864	      0.74020322	      5.11898387
      3.83000000	     -7.39899619	      1.66321645	     -0.69489246	     -0.16051500	      0.98617839	     -0.53898945	     14.78499598	     -6.57220543	    -11.32433414	     23.31274455	      0.40688415	    -16.36188366	      0.00000000	      0.00000000	     14.51883865	     -3.52490991	      6.07991584	     20.06924968	      0.35027449	    -18.15812169	      0.00000000	      0.00000000	     -0.79912093	      0.69992076	      5.12365921
      3.83500000	     -7.36902645	      1.67701859	     -0.69238705	     -0.16122056	      0.98248640	     -0.53914582	     15.14296555	     -6.66466711	    -11.37573298	     24.11623901	      0.42090777	    -16.02001472	      0.00000000	      0.00000000	     14.84601763	     -3.53908061	      5.93461409	     20.82119870	      0.36339847	    -17.91248281	      0.00000000	      0.00000000	     -1.02302205	      0.65861261	      5.13875431
      3.84000000	     -7.33144950	      1.68922147	     -0.69717120	     -0.16195979	      0.97853910	     -0.53928723	     15.51142102	     -6.76174986	    -11.44284513	     24.96519012	      0.43572477	    -15.59121275	      0.00000000	      0.00000000	     15.18256614	     -3.56880584	      5.74278683	     21.62112954	      0.37735990	    -17.59503022	      0.00000000	      0.00000000	     -1.26458466	      0.61825764	      5.15302391
      3.84500000	     -7.28613638	      1.70128652	     -0.70077729	     -0.16272933	      0.97435162	     -0.53942850	     15.88772013	     -6.86942165	    -11.53455174	     25.86683265	      0.45146140	    -15.02229377	      0.00000000	      0.00000000	     15.53105795	     -3.60878663	      5.52213081	     22.47513674	      0.39226514	    -17.13030491	      0.00000000	      0.00000000	     -1.52290016	      0.57598166	      5.15921308
      3.85000000	     -7.23244857	      1.71278431	     -0.69851731	     -0.16352104	      0.96993474	     -0.53957100	     16.26924529	     -6.99161630	    -11.65868632	     26.83412434	      0.46834382	    -14.24527639	      0.00000000	      0.00000000	     15.89569966	     -3.66074712	      5.27604699	     23.39627070	      0.40834196	    -16.42428882	      0.00000000	      0.00000000	     -1.79576842	      0.53160582	      5.15694396
      3.85500000	     -7.18238126	      1.72633662	     -0.67490084	     -0.16434779	      0.96529530	     -0.53974647	     16.66672346	     -7.13929055	    -11.82317694	     27.88002466	      0.48659823	    -13.24602813	      0.00000000	      0.00000000	     16.28698928	     -3.70501788	      5.06461853	     24.38256145	      0.42555598	    -15.49549282	      0.00000000	      0.00000000	     -2.07094380	      0.48479712	      5.12817521
      3.86000000	     -7.14499850	      1.74291912	     -0.62181211	     -0.16522473	      0.96044373	     -0.53997274	     17.09091299	     -7.31774138	    -12.02675036	     29.01443086	      0.50639735	    -12.03370555	      0.00000000	      0.00000000	     16.71614688	     -3.72889034	      4.92369767	     25.43687138	      0.44395716	    -14.36448969	      0.00000000	      0.00000000	     -2.33838122	      0.43569402	      5.06383535
